<?xml version="1.0" encoding="UTF-8" standalone="no"?>
<!-- Created with Inkscape (http://www.inkscape.org/) -->

<svg
   width="12.094643mm"
   height="13.229167mm"
   viewBox="0 0 12.094643 13.229167"
   version="1.1"
   id="svg1"
   xml:space="preserve"
   xmlns="http://www.w3.org/2000/svg"
   xmlns:svg="http://www.w3.org/2000/svg"><defs
     id="defs1" /><g
     id="layer1"
     transform="translate(-70.800125,-43.075801)"><g
       id="g4"
       transform="matrix(0.26458333,0,0,0.26458333,70.80013,43.075797)"><g
         id="g5"><path
           d="M 19.297,27.142 V 3.56 C 19.297,1.587 20.89,0 22.862,0 v 0 c 1.966,0 3.56,1.587 3.56,3.56 v 0 23.582 c 0,1.969 -1.594,3.561 -3.56,3.561 v 0 C 20.89,30.702 19.297,29.11 19.297,27.142 Z"
           id="path1"
           style="fill:#f97316;fill-opacity:1"
           transform="matrix(1,0,0,0.93297568,-2.519685e-6,-1.8897638e-6)" /><g
           id="g3"><g
             id="g2"
             style="fill:#f97316;fill-opacity:1"><path
               d="M 0,27.146 C 0,19.791 3.52,13.279 8.878,9.13 v 0 h 0.005 c 1.554,-1.203 3.795,-0.921 4.998,0.633 v 0 c 1.203,1.556 0.919,3.791 -0.635,4.993 v 0 C 9.518,17.664 7.129,22.094 7.12,27.146 v 0 c 0.018,8.683 7.05,15.711 15.736,15.729 v 0 c 8.691,-0.019 15.718,-7.047 15.736,-15.729 v 0 C 38.587,22.094 36.195,17.665 32.466,14.765 v 0 C 30.912,13.56 30.628,11.319 31.831,9.763 v 0 C 33.038,8.209 35.28,7.92 36.834,9.13 v 0 c 5.362,4.148 8.887,10.66 8.878,18.016 v 0 C 45.713,39.769 35.485,50 22.856,50 v 0 C 10.227,50 0.01,39.769 0,27.146 Z"
               id="path2"
               style="fill:#f97316;fill-opacity:1" /></g></g></g></g></g></svg>
